# File created by Blade
# Date/Time:  Thu Jan 22 16:31:11 2015
# Frame Rate: 120.000 fps
#------------------------------------------------------
:FULLY-SPECIFIED
:DEGREES
559
root 26.447651 18.162341 -0.496026 0.364062 25.982610 -21.370555
RightUpLeg 16.766999 -6.028067 -36.217550
RightLeg 0.297190 -0.000000 -0.000000
RightFoot -17.823665 -14.954749 39.598943
RightToeBase 17.257110 -0.000000 -0.000000
LeftUpLeg -101.298277 28.937830 8.083343
LeftLeg 133.130802 -0.000000 -0.000000
LeftFoot -30.049517 -0.809568 -25.035630
LeftToeBase -15.622774 -0.000000 0.000000
Spine 31.928343 -0.600824 -53.662809
RightShoulder -12.738459 3.736131 -45.474963
RightArm 16.570386 65.472555 -20.697486
RightForeArm -1.887996 -0.000000 15.374768
RightHand 15.457833 -0.000000 -44.515785
RightHandThumb1 -24.326973 -0.000000 -32.862282
LeftShoulder -16.416362 40.308671 14.044716
LeftArm 86.428608 -47.128958 -126.599502
LeftForeArm -11.265335 -0.000000 11.931492
LeftHand -28.620272 0.000000 99.072465
LeftHandThumb1 -26.253704 0.000000 33.147579
Head 13.405448 16.039155 -49.766919
560
root 26.441338 18.161575 -0.489511 0.421413 26.050293 -21.342511
RightUpLeg 16.785780 -6.035680 -36.224968
RightLeg 0.296923 -0.000000 -0.000000
RightFoot -17.876015 -14.998663 39.680685
RightToeBase 17.331003 -0.000000 -0.000000
LeftUpLeg -101.359867 28.905127 8.018957
LeftLeg 133.111494 -0.000000 -0.000000
LeftFoot -30.078796 -0.804695 -25.034250
LeftToeBase -15.592535 -0.000000 0.000000
Spine 31.902077 -0.627738 -53.659793
RightShoulder -12.800120 3.759329 -45.450736
RightArm 16.727238 65.569175 -20.783967
RightForeArm -1.966039 0.000000 15.271647
RightHand 15.488242 -0.000000 -44.210530
RightHandThumb1 -24.326973 -0.000000 -32.862282
LeftShoulder -16.441262 40.376035 14.017241
LeftArm 86.499013 -47.043556 -126.452210
LeftForeArm -11.320602 -0.000000 11.689754
LeftHand -28.560800 0.000000 99.045308
LeftHandThumb1 -26.253704 0.000000 33.147579
Head 13.342952 16.012079 -49.718926
561
root 26.434904 18.161739 -0.482015 0.472040 26.140834 -21.304191
RightUpLeg 16.832491 -6.081726 -36.247791
RightLeg 0.294088 -0.000000 -0.000000
RightFoot -17.914247 -15.014777 39.728311
RightToeBase 17.354321 -0.000000 -0.000000
LeftUpLeg -101.411518 28.850232 7.949439
LeftLeg 133.088116 -0.000000 -0.000000
LeftFoot -30.100415 -0.787667 -25.004489
LeftToeBase -15.576568 -0.000000 0.000000
Spine 31.917434 -0.662807 -53.682902
RightShoulder -12.865203 3.850689 -45.459469
RightArm 16.909807 65.643891 -20.774735
RightForeArm -1.963724 -0.000000 15.226812
RightHand 15.474189 -0.000000 -44.100657
RightHandThumb1 -24.326973 -0.000000 -32.862282
LeftShoulder -16.490070 40.420815 14.004895
LeftArm 86.506574 -46.966411 -126.193482
LeftForeArm -11.449592 -0.000000 11.356431
LeftHand -28.524426 0.000000 99.042557
LeftHandThumb1 -26.253704 0.000000 33.147579
Head 13.223080 15.866915 -49.740885
562
root 26.429569 18.161385 -0.474788 0.524768 26.215701 -21.266598
RightUpLeg 16.863200 -6.042115 -36.248457
RightLeg 0.300597 -0.000000 -0.000000
RightFoot -18.009913 -15.066130 39.816303
RightToeBase 17.428612 -0.000000 -0.000000
LeftUpLeg -101.463431 28.809011 7.883005
LeftLeg 133.069563 -0.000000 -0.000000
LeftFoot -30.117035 -0.789061 -25.002151
LeftToeBase -15.547192 -0.000000 0.000000
Spine 31.911781 -0.693908 -53.700898
RightShoulder -12.922271 3.988907 -45.459315
RightArm 17.146867 65.667625 -20.757688
RightForeArm -1.956596 0.000000 15.162026
RightHand 15.495025 -0.000000 -44.037796
RightHandThumb1 -24.326973 -0.000000 -32.862282
LeftShoulder -16.517724 40.483760 14.002496
LeftArm 86.535492 -46.891723 -125.943299
LeftForeArm -11.595812 -0.000000 10.983548
LeftHand -28.542639 -0.000000 99.008529
LeftHandThumb1 -26.253704 0.000000 33.147579
Head 13.114396 15.808445 -49.683664
563
root 26.425139 18.160237 -0.467938 0.594396 26.284485 -21.216735
RightUpLeg 16.878242 -5.980324 -36.255991
RightLeg 0.306642 -0.000000 -0.000000
RightFoot -18.120186 -15.125463 39.907429
RightToeBase 17.499665 -0.000000 -0.000000
LeftUpLeg -101.528594 28.773774 7.792618
LeftLeg 133.059439 -0.000000 -0.000000
LeftFoot -30.133531 -0.783940 -24.924590
LeftToeBase -15.470102 -0.000000 0.000000
Spine 31.887828 -0.721206 -53.726775
RightShoulder -13.000099 4.092133 -45.464013
RightArm 17.449304 65.720543 -20.642084
RightForeArm -2.143410 -0.000000 15.142290
RightHand 15.419509 -0.000000 -44.024307
RightHandThumb1 -24.326973 -0.000000 -32.862282
LeftShoulder -16.547676 40.585015 13.993939
LeftArm 86.605619 -46.787225 -125.716779
LeftForeArm -11.742902 -0.000000 10.591642
LeftHand -28.436501 -0.000000 98.976055
LeftHandThumb1 -26.253704 0.000000 33.147579
Head 13.033965 15.711308 -49.665799
